<svg xmlns="http://www.w3.org/2000/svg" viewBox="0 0 1024 1024"><path d="m124.6 321.2 62.6-62.6 99.6-99.6 22.7-22.7h-84.9l62.6 62.6 99.6 99.6 22.7 22.7c10.9 10.9 27 17.6 42.4 17.6 14.7 0 32.3-6.5 42.4-17.6 10.5-11.4 18.3-26.4 17.6-42.4-.7-15.9-6.1-30.9-17.6-42.4l-62.6-62.6-99.6-99.6-22.7-22.7c-22.9-22.9-61.9-23-84.9 0l-62.6 62.6-99.6 99.6-22.7 22.7c-10.9 10.9-17.6 27-17.6 42.4 0 14.7 6.5 32.3 17.6 42.4C51 331.7 66 339.5 82 338.8c16-.8 31.1-6.2 42.6-17.6z"/><path d="M206.9 93.9V896c0 10.9-.1 21.8 0 32.6v1.4c0 15.4 6.7 31.5 17.6 42.4 10.4 10.4 27.5 18.2 42.4 17.6 15.5-.7 31.6-5.8 42.4-17.6 10.8-11.7 17.6-26.2 17.6-42.4V127.9c0-10.9.1-21.8 0-32.6v-1.4c0-15.4-6.7-31.5-17.6-42.4-10.4-10.4-27.5-18.2-42.4-17.6-15.5.7-31.6 5.8-42.4 17.6-10.8 11.7-17.6 26.2-17.6 42.4zm247.4 458.7h427.5c19.7 0 39.5.2 59.2 0h.8c15.4 0 31.5-6.7 42.4-17.6 10.4-10.4 18.2-27.5 17.6-42.4-.7-15.5-5.8-31.6-17.6-42.4-11.7-10.8-26.2-17.6-42.4-17.6H514.3c-19.7 0-39.5-.2-59.2 0h-.8c-15.4 0-31.5 6.7-42.4 17.6-10.4 10.4-18.2 27.5-17.6 42.4.7 15.5 5.8 31.6 17.6 42.4 11.7 10.8 26.2 17.6 42.4 17.6zM787.7 609H454.3c-15.4 0-31.5 6.7-42.4 17.6-10.4 10.4-18.2 27.5-17.6 42.4.7 15.5 5.8 31.6 17.6 42.4 11.7 10.8 26.2 17.6 42.4 17.6h333.4c15.4 0 31.5-6.7 42.4-17.6 10.4-10.4 18.2-27.5 17.6-42.4-.7-15.5-5.8-31.6-17.6-42.4-11.7-10.8-26.1-17.6-42.4-17.6zM633.5 785.3H454.3c-15.4 0-31.5 6.7-42.4 17.6-10.4 10.4-18.2 27.5-17.6 42.4.7 15.5 5.8 31.6 17.6 42.4 11.7 10.8 26.2 17.6 42.4 17.6h179.2c15.4 0 31.5-6.7 42.4-17.6 10.4-10.4 18.2-27.5 17.6-42.4-.7-15.5-5.8-31.6-17.6-42.4-11.7-10.8-26.1-17.6-42.4-17.6z"/></svg>