<svg xmlns="http://www.w3.org/2000/svg" data-name="Layer 1" viewBox="0 0 32 32"><path fill="#0032c8" d="M29.1211,8.707,22.293,1.8789A2.9794,2.9794,0,0,0,20.1719,1H5A3.0033,3.0033,0,0,0,2,4V28a3.0033,3.0033,0,0,0,3,3H27a3.0033,3.0033,0,0,0,3-3V10.8286A2.9818,2.9818,0,0,0,29.1211,8.707ZM17,3V7H9V3ZM9,29V19H23V29Zm19-1a1.0006,1.0006,0,0,1-1,1H25V18a1,1,0,0,0-1-1H8a1,1,0,0,0-1,1V29H5a1.0006,1.0006,0,0,1-1-1V4A1.0009,1.0009,0,0,1,5,3H7V8A1,1,0,0,0,8,9H18a1,1,0,0,0,1-1V3h1.1719a1.0086,1.0086,0,0,1,.707.293l6.8281,6.8281a.9963.9963,0,0,1,.293.7075Z"/><path fill="#0032c8" d="M20 21H12a1 1 0 0 0 0 2h8a1 1 0 0 0 0-2zM20 25H12a1 1 0 0 0 0 2h8a1 1 0 0 0 0-2z"/></svg>